<?xml version="1.0" standalone="no"?>
<svg id="Group8" width="791" height="840" viewBox="0 0 791 840" fill="none" xmlns="http://www.w3.org/2000/svg" style="max-width: 100%; max-height: 100%;">
<path d="M265.302 198.899C210.994 108.171 198.539 15.3391 195.721 -18.5026L116.542 -26.8635C116.542 -26.8635 128.732 134.551 192.958 262.512C279.219 434.312 400.81 483.663 400.81 483.663L922.464 543.88C922.464 543.88 859.407 513.731 813.416 463.781C767.426 413.831 739.032 365.563 739.032 365.563L496.849 337.746C496.849 337.746 354.334 347.616 265.302 198.899Z" fill="white" stroke-dasharray="0,0,0,2230.533203125"><animate attributeType="XML" attributeName="stroke-dasharray" repeatCount="1" dur="4.166666666666667s" values="0,0,0,2230.533203125; 
          0,1115.2666015625,1115.2666015625,0; 
          2230.533203125,0,0,0" keyTimes="0; 0.5; 1" fill="freeze"></animate></path>
<path d="M265.302 198.899C210.994 108.171 198.539 15.3391 195.721 -18.5026L116.542 -26.8635C116.542 -26.8635 128.732 134.551 192.958 262.512C279.219 434.312 400.81 483.663 400.81 483.663L922.464 543.88C922.464 543.88 859.407 513.731 813.416 463.781C767.426 413.831 739.032 365.563 739.032 365.563L496.849 337.746C496.849 337.746 354.334 347.616 265.302 198.899Z" stroke="#6A6868" stroke-dasharray="0,0,0,2230.533203125"><animate attributeType="XML" attributeName="stroke-dasharray" repeatCount="1" dur="4.166666666666667s" values="0,0,0,2230.533203125; 
          0,1115.2666015625,1115.2666015625,0; 
          2230.533203125,0,0,0" keyTimes="0; 0.5; 1" fill="freeze"></animate></path>
<path d="M265.302 198.899C210.994 108.171 198.539 15.3391 195.721 -18.5026L116.542 -26.8635C116.542 -26.8635 128.732 134.551 192.958 262.512C279.219 434.312 400.81 483.663 400.81 483.663L922.464 543.88C922.464 543.88 859.407 513.731 813.416 463.781C767.426 413.831 739.032 365.563 739.032 365.563L496.849 337.746C496.849 337.746 354.334 347.616 265.302 198.899Z" stroke="#0E5CF2" stroke-dasharray="0,0,0,2230.533203125"><animate attributeType="XML" attributeName="stroke-dasharray" repeatCount="1" dur="4.166666666666667s" values="0,0,0,2230.533203125; 
          0,1115.2666015625,1115.2666015625,0; 
          2230.533203125,0,0,0" keyTimes="0; 0.5; 1" fill="freeze"></animate></path>
<path d="M655.616 -15.3614L340.399 -50.2589C348.213 42.5613 392.219 97.8826 413.246 113.941C480.208 164.184 539.189 143.423 560.311 126.762L723.699 146.392C666.649 89.2181 656.174 18.3595 655.616 -15.3614Z" fill="white" stroke-dasharray="0,0,0,1003.6631469726562"><animate attributeType="XML" attributeName="stroke-dasharray" repeatCount="1" dur="4.166666666666667s" values="0,0,0,1003.6631469726562; 
          0,501.8315734863281,501.8315734863281,0; 
          1003.6631469726562,0,0,0" keyTimes="0; 0.5; 1" fill="freeze"></animate></path>
<path d="M655.616 -15.3614L340.399 -50.2589C348.213 42.5613 392.219 97.8826 413.246 113.941C480.208 164.184 539.189 143.423 560.311 126.762L723.699 146.392C666.649 89.2181 656.174 18.3595 655.616 -15.3614Z" stroke="#6A6868" stroke-dasharray="0,0,0,1003.6631469726562"><animate attributeType="XML" attributeName="stroke-dasharray" repeatCount="1" dur="4.166666666666667s" values="0,0,0,1003.6631469726562; 
          0,501.8315734863281,501.8315734863281,0; 
          1003.6631469726562,0,0,0" keyTimes="0; 0.5; 1" fill="freeze"></animate></path>
<path d="M655.616 -15.3614L340.399 -50.2589C348.213 42.5613 392.219 97.8826 413.246 113.941C480.208 164.184 539.189 143.423 560.311 126.762L723.699 146.392C666.649 89.2181 656.174 18.3595 655.616 -15.3614Z" stroke="#0E5CF2" stroke-dasharray="0,0,0,1003.6631469726562"><animate attributeType="XML" attributeName="stroke-dasharray" repeatCount="1" dur="4.166666666666667s" values="0,0,0,1003.6631469726562; 
          0,501.8315734863281,501.8315734863281,0; 
          1003.6631469726562,0,0,0" keyTimes="0; 0.5; 1" fill="freeze"></animate></path>
<path d="M311.196 -41.5458L312.737 -30.6594C314.651 -0.128503 324.69 62.2238 370.037 123.056C415.383 183.888 468.083 188.409 495.344 188.887C516.172 188.006 551.417 179.321 568.338 168.302L560.311 126.763C539.189 143.423 480.208 164.184 413.246 113.941C392.219 97.8826 348.213 42.5613 340.399 -50.2589L311.196 -41.5458Z" fill="white" stroke-dasharray="0,0,0,815.9771118164062"><animate attributeType="XML" attributeName="stroke-dasharray" repeatCount="1" dur="4.166666666666667s" values="0,0,0,815.9771118164062; 
          0,407.9885559082031,407.9885559082031,0; 
          815.9771118164062,0,0,0" keyTimes="0; 0.5; 1" fill="freeze"></animate></path>
<path d="M311.196 -41.5458L312.737 -30.6594C314.651 -0.128503 324.69 62.2238 370.037 123.056C415.383 183.888 468.083 188.409 495.344 188.887C516.172 188.006 551.417 179.321 568.338 168.302L560.311 126.763C539.189 143.423 480.208 164.184 413.246 113.941C392.219 97.8826 348.213 42.5613 340.399 -50.2589L311.196 -41.5458Z" stroke="#6A6868" stroke-dasharray="0,0,0,815.9771118164062"><animate attributeType="XML" attributeName="stroke-dasharray" repeatCount="1" dur="4.166666666666667s" values="0,0,0,815.9771118164062; 
          0,407.9885559082031,407.9885559082031,0; 
          815.9771118164062,0,0,0" keyTimes="0; 0.5; 1" fill="freeze"></animate></path>
<path d="M311.196 -41.5458L312.737 -30.6594C314.651 -0.128503 324.69 62.2238 370.037 123.056C415.383 183.888 468.083 188.409 495.344 188.887C516.172 188.006 551.417 179.321 568.338 168.302L560.311 126.763C539.189 143.423 480.208 164.184 413.246 113.941C392.219 97.8826 348.213 42.5613 340.399 -50.2589L311.196 -41.5458Z" stroke="#0E5CF2" stroke-dasharray="0,0,0,815.9771118164062"><animate attributeType="XML" attributeName="stroke-dasharray" repeatCount="1" dur="4.166666666666667s" values="0,0,0,815.9771118164062; 
          0,407.9885559082031,407.9885559082031,0; 
          815.9771118164062,0,0,0" keyTimes="0; 0.5; 1" fill="freeze"></animate></path>
<path d="M295.604 179.165C367.516 285.561 461.397 301.429 499.168 295.784L861.672 336.349C834.33 331.286 767.187 299.59 717.605 216.151L495.344 188.887C468.083 188.409 415.383 183.888 370.037 123.056C324.69 62.2238 314.651 -0.128508 312.737 -30.6594L223.677 -40.8299C234.514 75.1332 276.208 153.845 295.604 179.165Z" fill="white" stroke-dasharray="0,0,0,1663.8868408203125"><animate attributeType="XML" attributeName="stroke-dasharray" repeatCount="1" dur="4.166666666666667s" values="0,0,0,1663.8868408203125; 
          0,831.9434204101562,831.9434204101562,0; 
          1663.8868408203125,0,0,0" keyTimes="0; 0.5; 1" fill="freeze"></animate></path>
<path d="M295.604 179.165C367.516 285.561 461.397 301.429 499.168 295.784L861.672 336.349C834.33 331.286 767.187 299.59 717.605 216.151L495.344 188.887C468.083 188.409 415.383 183.888 370.037 123.056C324.69 62.2238 314.651 -0.128508 312.737 -30.6594L223.677 -40.8299C234.514 75.1332 276.208 153.845 295.604 179.165Z" stroke="#6A6868" stroke-dasharray="0,0,0,1663.8868408203125"><animate attributeType="XML" attributeName="stroke-dasharray" repeatCount="1" dur="4.166666666666667s" values="0,0,0,1663.8868408203125; 
          0,831.9434204101562,831.9434204101562,0; 
          1663.8868408203125,0,0,0" keyTimes="0; 0.5; 1" fill="freeze"></animate></path>
<path d="M295.604 179.165C367.516 285.561 461.397 301.429 499.168 295.784L861.672 336.349C834.33 331.286 767.187 299.59 717.605 216.151L495.344 188.887C468.083 188.409 415.383 183.888 370.037 123.056C324.69 62.2238 314.651 -0.128508 312.737 -30.6594L223.677 -40.8299C234.514 75.1332 276.208 153.845 295.604 179.165Z" stroke="#0E5CF2" stroke-dasharray="0,0,0,1663.8868408203125"><animate attributeType="XML" attributeName="stroke-dasharray" repeatCount="1" dur="4.166666666666667s" values="0,0,0,1663.8868408203125; 
          0,831.9434204101562,831.9434204101562,0; 
          1663.8868408203125,0,0,0" keyTimes="0; 0.5; 1" fill="freeze"></animate></path>
<path d="M195.721 -18.5024C198.539 15.3392 210.994 108.171 265.302 198.899C354.334 347.616 496.849 337.746 496.849 337.746L499.168 295.784C461.397 301.429 367.516 285.561 295.604 179.165C276.208 153.845 234.514 75.1332 223.677 -40.8298L194.474 -32.1167L195.721 -18.5024Z" fill="white" stroke-dasharray="0,0,0,1078.845947265625"><animate attributeType="XML" attributeName="stroke-dasharray" repeatCount="1" dur="4.166666666666667s" values="0,0,0,1078.845947265625; 
          0,539.4229736328125,539.4229736328125,0; 
          1078.845947265625,0,0,0" keyTimes="0; 0.5; 1" fill="freeze"></animate></path>
<path d="M195.721 -18.5024C198.539 15.3392 210.994 108.171 265.302 198.899C354.334 347.616 496.849 337.746 496.849 337.746L499.168 295.784C461.397 301.429 367.516 285.561 295.604 179.165C276.208 153.845 234.514 75.1332 223.677 -40.8298L194.474 -32.1167L195.721 -18.5024Z" stroke="#6A6868" stroke-dasharray="0,0,0,1078.845947265625"><animate attributeType="XML" attributeName="stroke-dasharray" repeatCount="1" dur="4.166666666666667s" values="0,0,0,1078.845947265625; 
          0,539.4229736328125,539.4229736328125,0; 
          1078.845947265625,0,0,0" keyTimes="0; 0.5; 1" fill="freeze"></animate></path>
<path d="M195.721 -18.5024C198.539 15.3392 210.994 108.171 265.302 198.899C354.334 347.616 496.849 337.746 496.849 337.746L499.168 295.784C461.397 301.429 367.516 285.561 295.604 179.165C276.208 153.845 234.514 75.1332 223.677 -40.8298L194.474 -32.1167L195.721 -18.5024Z" stroke="#0E5CF2" stroke-dasharray="0,0,0,1078.845947265625"><animate attributeType="XML" attributeName="stroke-dasharray" repeatCount="1" dur="4.166666666666667s" values="0,0,0,1078.845947265625; 
          0,539.4229736328125,539.4229736328125,0; 
          1078.845947265625,0,0,0" keyTimes="0; 0.5; 1" fill="freeze"></animate></path>
<path d="M192.958 262.512C128.732 134.551 116.542 -26.8635 116.542 -26.8635L86.7234 -17.4327C90.6408 39.7042 111.469 179.529 163.443 281.734C228.409 409.489 308.812 487.917 389.653 525.634L400.81 483.663C400.81 483.663 279.219 434.312 192.958 262.512Z" fill="white" stroke-dasharray="0,0,0,1333.6513671875"><animate attributeType="XML" attributeName="stroke-dasharray" repeatCount="1" dur="4.166666666666667s" values="0,0,0,1333.6513671875; 
          0,666.82568359375,666.82568359375,0; 
          1333.6513671875,0,0,0" keyTimes="0; 0.5; 1" fill="freeze"></animate></path>
<path d="M192.958 262.512C128.732 134.551 116.542 -26.8635 116.542 -26.8635L86.7234 -17.4327C90.6408 39.7042 111.469 179.529 163.443 281.734C228.409 409.489 308.812 487.917 389.653 525.634L400.81 483.663C400.81 483.663 279.219 434.312 192.958 262.512Z" stroke="#6A6868" stroke-dasharray="0,0,0,1333.6513671875"><animate attributeType="XML" attributeName="stroke-dasharray" repeatCount="1" dur="4.166666666666667s" values="0,0,0,1333.6513671875; 
          0,666.82568359375,666.82568359375,0; 
          1333.6513671875,0,0,0" keyTimes="0; 0.5; 1" fill="freeze"></animate></path>
<path d="M192.958 262.512C128.732 134.551 116.542 -26.8635 116.542 -26.8635L86.7234 -17.4327C90.6408 39.7042 111.469 179.529 163.443 281.734C228.409 409.489 308.812 487.917 389.653 525.634L400.81 483.663C400.81 483.663 279.219 434.312 192.958 262.512Z" stroke="#0E5CF2" stroke-dasharray="0,0,0,1333.6513671875"><animate attributeType="XML" attributeName="stroke-dasharray" repeatCount="1" dur="4.166666666666667s" values="0,0,0,1333.6513671875; 
          0,666.82568359375,666.82568359375,0; 
          1333.6513671875,0,0,0" keyTimes="0; 0.5; 1" fill="freeze"></animate></path>
<path d="M922.464 543.88L400.81 483.663L389.653 525.634L912.232 585.609L922.464 543.88Z" fill="white" stroke-dasharray="0,0,0,1137.52099609375"><animate attributeType="XML" attributeName="stroke-dasharray" repeatCount="1" dur="4.166666666666667s" values="0,0,0,1137.52099609375; 
          0,568.760498046875,568.760498046875,0; 
          1137.52099609375,0,0,0" keyTimes="0; 0.5; 1" fill="freeze"></animate></path>
<path d="M922.464 543.88L400.81 483.663L389.653 525.634L912.232 585.609L922.464 543.88Z" stroke="#6A6868" stroke-dasharray="0,0,0,1137.52099609375"><animate attributeType="XML" attributeName="stroke-dasharray" repeatCount="1" dur="4.166666666666667s" values="0,0,0,1137.52099609375; 
          0,568.760498046875,568.760498046875,0; 
          1137.52099609375,0,0,0" keyTimes="0; 0.5; 1" fill="freeze"></animate></path>
<path d="M922.464 543.88L400.81 483.663L389.653 525.634L912.232 585.609L922.464 543.88Z" stroke="#0E5CF2" stroke-dasharray="0,0,0,1137.52099609375"><animate attributeType="XML" attributeName="stroke-dasharray" repeatCount="1" dur="4.166666666666667s" values="0,0,0,1137.52099609375; 
          0,568.760498046875,568.760498046875,0; 
          1137.52099609375,0,0,0" keyTimes="0; 0.5; 1" fill="freeze"></animate></path>
<path d="M496.849 337.746L739.032 365.563L925.427 386.779L927.729 344.061L861.672 336.349L499.168 295.784L496.849 337.746Z" fill="white" stroke-dasharray="0,0,0,947.4521484375"><animate attributeType="XML" attributeName="stroke-dasharray" repeatCount="1" dur="4.166666666666667s" values="0,0,0,947.4521484375; 
          0,473.72607421875,473.72607421875,0; 
          947.4521484375,0,0,0" keyTimes="0; 0.5; 1" fill="freeze"></animate></path>
<path d="M496.849 337.746L739.032 365.563L925.427 386.779L927.729 344.061L861.672 336.349L499.168 295.784L496.849 337.746Z" stroke="#6A6868" stroke-dasharray="0,0,0,947.4521484375"><animate attributeType="XML" attributeName="stroke-dasharray" repeatCount="1" dur="4.166666666666667s" values="0,0,0,947.4521484375; 
          0,473.72607421875,473.72607421875,0; 
          947.4521484375,0,0,0" keyTimes="0; 0.5; 1" fill="freeze"></animate></path>
<path d="M496.849 337.746L739.032 365.563L925.427 386.779L927.729 344.061L861.672 336.349L499.168 295.784L496.849 337.746Z" stroke="#0E5CF2" stroke-dasharray="0,0,0,947.4521484375"><animate attributeType="XML" attributeName="stroke-dasharray" repeatCount="1" dur="4.166666666666667s" values="0,0,0,947.4521484375; 
          0,473.72607421875,473.72607421875,0; 
          947.4521484375,0,0,0" keyTimes="0; 0.5; 1" fill="freeze"></animate></path>
<path d="M882.08 203.367L568.338 168.302C551.418 179.321 516.172 188.006 495.344 188.887L717.605 216.151C795.805 225.468 831.817 234.515 882.08 203.367Z" fill="white" stroke-dasharray="0,0,0,785.2496948242188"><animate attributeType="XML" attributeName="stroke-dasharray" repeatCount="1" dur="4.166666666666667s" values="0,0,0,785.2496948242188; 
          0,392.6248474121094,392.6248474121094,0; 
          785.2496948242188,0,0,0" keyTimes="0; 0.5; 1" fill="freeze"></animate></path>
<path d="M882.08 203.367L568.338 168.302C551.418 179.321 516.172 188.006 495.344 188.887L717.605 216.151C795.805 225.468 831.817 234.515 882.08 203.367Z" stroke="#6A6868" stroke-dasharray="0,0,0,785.2496948242188"><animate attributeType="XML" attributeName="stroke-dasharray" repeatCount="1" dur="4.166666666666667s" values="0,0,0,785.2496948242188; 
          0,392.6248474121094,392.6248474121094,0; 
          785.2496948242188,0,0,0" keyTimes="0; 0.5; 1" fill="freeze"></animate></path>
<path d="M882.08 203.367L568.338 168.302C551.418 179.321 516.172 188.006 495.344 188.887L717.605 216.151C795.805 225.468 831.817 234.515 882.08 203.367Z" stroke="#0E5CF2" stroke-dasharray="0,0,0,785.2496948242188"><animate attributeType="XML" attributeName="stroke-dasharray" repeatCount="1" dur="4.166666666666667s" values="0,0,0,785.2496948242188; 
          0,392.6248474121094,392.6248474121094,0; 
          785.2496948242188,0,0,0" keyTimes="0; 0.5; 1" fill="freeze"></animate></path>
<path d="M873.47 164.586L723.699 146.392L560.311 126.762L568.338 168.302L882.08 203.367L873.47 164.586Z" fill="white" stroke-dasharray="0,0,0,713.1641845703125"><animate attributeType="XML" attributeName="stroke-dasharray" repeatCount="1" dur="4.166666666666667s" values="0,0,0,713.1641845703125; 
          0,356.58209228515625,356.58209228515625,0; 
          713.1641845703125,0,0,0" keyTimes="0; 0.5; 1" fill="freeze"></animate></path>
<path d="M873.47 164.586L723.699 146.392L560.311 126.762L568.338 168.302L882.08 203.367L873.47 164.586Z" stroke="#6A6868" stroke-dasharray="0,0,0,713.1641845703125"><animate attributeType="XML" attributeName="stroke-dasharray" repeatCount="1" dur="4.166666666666667s" values="0,0,0,713.1641845703125; 
          0,356.58209228515625,356.58209228515625,0; 
          713.1641845703125,0,0,0" keyTimes="0; 0.5; 1" fill="freeze"></animate></path>
<path d="M873.47 164.586L723.699 146.392L560.311 126.762L568.338 168.302L882.08 203.367L873.47 164.586Z" stroke="#0E5CF2" stroke-dasharray="0,0,0,713.1641845703125"><animate attributeType="XML" attributeName="stroke-dasharray" repeatCount="1" dur="4.166666666666667s" values="0,0,0,713.1641845703125; 
          0,356.58209228515625,356.58209228515625,0; 
          713.1641845703125,0,0,0" keyTimes="0; 0.5; 1" fill="freeze"></animate></path>
<path d="M195.721 -18.5025C198.539 15.3391 210.994 108.171 265.302 198.899C354.334 347.616 496.849 337.746 496.849 337.746M195.721 -18.5025L116.542 -26.8635M195.721 -18.5025L194.474 -32.1168L223.677 -40.8299M496.849 337.746L739.032 365.563M496.849 337.746L499.168 295.784M116.542 -26.8635C116.542 -26.8635 128.732 134.551 192.958 262.512C279.219 434.312 400.81 483.663 400.81 483.663M116.542 -26.8635L86.7234 -17.4327C90.6408 39.7042 111.469 179.529 163.443 281.734C228.409 409.489 308.812 487.917 389.653 525.634M223.677 -40.8299C234.514 75.1331 276.208 153.845 295.604 179.165C367.516 285.561 461.397 301.428 499.168 295.784M223.677 -40.8299L312.737 -30.6594M400.81 483.663L922.464 543.88M400.81 483.663L389.653 525.634M389.653 525.634L912.232 585.609L922.464 543.88M922.464 543.88C922.464 543.88 859.407 513.731 813.416 463.781C767.426 413.831 739.032 365.563 739.032 365.563M739.032 365.563L925.427 386.778L927.729 344.061L861.672 336.349M861.672 336.349L499.168 295.784M861.672 336.349C834.331 331.286 767.187 299.59 717.605 216.151M312.737 -30.6594L311.196 -41.5458L340.399 -50.2589M312.737 -30.6594C314.651 -0.128551 324.69 62.2237 370.037 123.056C415.383 183.888 468.083 188.409 495.344 188.887M340.399 -50.2589L655.616 -15.3614C656.174 18.3595 666.649 89.2181 723.699 146.392M340.399 -50.2589C348.213 42.5613 392.219 97.8826 413.246 113.941C480.208 164.184 539.189 143.423 560.311 126.762M495.344 188.887C516.172 188.006 551.417 179.321 568.338 168.302M495.344 188.887L717.605 216.151M723.699 146.392L873.47 164.586L882.08 203.367M723.699 146.392L560.311 126.762M560.311 126.762L568.338 168.302M882.08 203.367L568.338 168.302M882.08 203.367C831.817 234.515 795.805 225.468 717.605 216.151" stroke="#6A6868" stroke-linecap="round" stroke-linejoin="round" stroke-dasharray="0,0,0,7409.779296875"><animate attributeType="XML" attributeName="stroke-dasharray" repeatCount="1" dur="4.166666666666667s" values="0,0,0,7409.779296875; 
          0,3704.8896484375,3704.8896484375,0; 
          7409.779296875,0,0,0" keyTimes="0; 0.5; 1" fill="freeze"></animate></path>
<path d="M195.721 -18.5025C198.539 15.3391 210.994 108.171 265.302 198.899C354.334 347.616 496.849 337.746 496.849 337.746M195.721 -18.5025L116.542 -26.8635M195.721 -18.5025L194.474 -32.1168L223.677 -40.8299M496.849 337.746L739.032 365.563M496.849 337.746L499.168 295.784M116.542 -26.8635C116.542 -26.8635 128.732 134.551 192.958 262.512C279.219 434.312 400.81 483.663 400.81 483.663M116.542 -26.8635L86.7234 -17.4327C90.6408 39.7042 111.469 179.529 163.443 281.734C228.409 409.489 308.812 487.917 389.653 525.634M223.677 -40.8299C234.514 75.1331 276.208 153.845 295.604 179.165C367.516 285.561 461.397 301.428 499.168 295.784M223.677 -40.8299L312.737 -30.6594M400.81 483.663L922.464 543.88M400.81 483.663L389.653 525.634M389.653 525.634L912.232 585.609L922.464 543.88M922.464 543.88C922.464 543.88 859.407 513.731 813.416 463.781C767.426 413.831 739.032 365.563 739.032 365.563M739.032 365.563L925.427 386.778L927.729 344.061L861.672 336.349M861.672 336.349L499.168 295.784M861.672 336.349C834.331 331.286 767.187 299.59 717.605 216.151M312.737 -30.6594L311.196 -41.5458L340.399 -50.2589M312.737 -30.6594C314.651 -0.128551 324.69 62.2237 370.037 123.056C415.383 183.888 468.083 188.409 495.344 188.887M340.399 -50.2589L655.616 -15.3614C656.174 18.3595 666.649 89.2181 723.699 146.392M340.399 -50.2589C348.213 42.5613 392.219 97.8826 413.246 113.941C480.208 164.184 539.189 143.423 560.311 126.762M495.344 188.887C516.172 188.006 551.417 179.321 568.338 168.302M495.344 188.887L717.605 216.151M723.699 146.392L873.47 164.586L882.08 203.367M723.699 146.392L560.311 126.762M560.311 126.762L568.338 168.302M882.08 203.367L568.338 168.302M882.08 203.367C831.817 234.515 795.805 225.468 717.605 216.151" stroke="#0E5CF2" stroke-linecap="round" stroke-linejoin="round" stroke-dasharray="0,0,0,7409.779296875"><animate attributeType="XML" attributeName="stroke-dasharray" repeatCount="1" dur="4.166666666666667s" values="0,0,0,7409.779296875; 
          0,3704.8896484375,3704.8896484375,0; 
          7409.779296875,0,0,0" keyTimes="0; 0.5; 1" fill="freeze"></animate></path>
</svg>