<svg width="1119" height="1099" viewBox="0 0 1119 1099" fill="none" xmlns="http://www.w3.org/2000/svg">
<path d="M808.676 767.961L722.324 587.998L525.833 710.395L357.783 813.601L159.743 400.775L1 498.794L283.842 1091.58L808.676 767.961Z" fill="white"/>
<path d="M346.917 602.835L689.476 390.62L504.764 1L159.743 214.336L251.167 404.095L346.917 602.835Z" fill="white"/>
<path d="M895.458 395.111L794.704 181.775L708.506 3.24565L504.762 1L689.474 390.62L895.458 395.111Z" fill="white"/>
<path d="M357.783 813.601L525.834 710.395L475.658 605.641L346.917 602.834L251.167 404.094L159.743 400.775L357.783 813.601Z" fill="white"/>
<path d="M895.46 395.111L689.476 390.619L346.917 602.834L475.658 605.641L552.901 607.326L857.976 418.333L895.46 395.111Z" fill="#F2890E"/>
<path d="M525.832 710.394L722.322 587.998L940.236 591.605L857.973 418.332L552.899 607.325L475.656 605.64L525.832 710.394Z" fill="white"/>
<path d="M722.324 587.996L808.675 767.959L1118.23 774.624L837.247 181.772H794.705L895.459 395.109L857.975 418.331L940.237 591.604L722.324 587.996Z" fill="white"/>
<path d="M808.673 767.96L283.84 1091.58L595.438 1098L1118.23 774.625L808.673 767.96Z" fill="#F2890E"/>
<path d="M808.676 767.961L722.324 587.999M808.676 767.961L283.842 1091.58M808.676 767.961L1118.23 774.626M722.324 587.999L525.833 710.395M722.324 587.999L940.237 591.606L857.975 418.333M283.842 1091.58L1 498.795L159.743 400.775M283.842 1091.58L595.44 1098L1118.23 774.626M1118.23 774.626L837.247 181.775H794.705M525.833 710.395L357.783 813.602L159.743 400.775M525.833 710.395L475.657 605.641M857.975 418.333L552.9 607.326M857.975 418.333L895.459 395.111M159.743 400.775L251.166 404.095M475.657 605.641L346.916 602.835M475.657 605.641L552.9 607.326M251.166 404.095L346.916 602.835M251.166 404.095L159.743 214.336L504.764 1M794.705 181.775L895.459 395.111M794.705 181.775L708.508 3.24565L504.764 1M552.9 607.326L895.459 395.111M895.459 395.111L689.475 390.62M504.764 1L689.475 390.62M689.475 390.62L346.916 602.835" stroke="#181818" stroke-linecap="round" stroke-linejoin="round"/>
</svg>
