<svg width="757" height="1062" viewBox="0 0 757 1062" fill="none" xmlns="http://www.w3.org/2000/svg">
<path d="M1 127.284V753.161L162.901 845.354V532.435C162.901 493.51 188.007 459.296 224.895 457.657C271.006 455.609 342.397 512.553 370.914 612.334C381.161 648.186 380.465 692.95 380.28 716.306C379.583 807.391 380.484 917.487 381.161 970.344L538.964 1061L539.988 438.707L1 127.284Z" fill="white"/>
<path d="M1 127.284L539.988 438.707L756.199 315.61L217.742 0.797852L1 127.284Z" fill="white"/>
<path d="M162.901 532.435V845.354L380.28 716.307C380.464 692.95 381.161 648.187 370.914 612.334C342.396 512.553 271.006 455.609 224.895 457.658C188.007 459.296 162.901 493.51 162.901 532.435Z" fill="#19B156"/>
<path d="M539.988 438.707L538.964 1061L756.199 937.686V315.61L539.988 438.707Z" fill="white"/>
<path d="M1 127.284V753.162L162.901 845.354M1 127.284L539.988 438.707M1 127.284L217.742 0.797852L756.199 315.61M162.901 845.354V532.435C162.901 493.51 188.007 459.296 224.895 457.658C271.006 455.609 342.397 512.553 370.914 612.334C381.161 648.186 380.465 692.95 380.28 716.307M162.901 845.354L380.28 716.307M539.988 438.707L538.964 1061M539.988 438.707L756.199 315.61M756.199 315.61V937.686L538.964 1061M380.28 716.307C379.583 807.391 380.484 917.488 381.161 970.344L538.964 1061" stroke="#181818" stroke-linecap="round" stroke-linejoin="round"/>
</svg>
