<svg width="1013" height="970" viewBox="0 0 1013 970" fill="none" xmlns="http://www.w3.org/2000/svg">
<path d="M675.557 965.784L1009.33 774.724V584.084L842.232 677.731V485.001V292.271L506.782 485.838V677.731L676.397 579.903L675.557 965.784Z" fill="white"/>
<path d="M506.782 485.838L842.232 292.27L674.353 195.773L507.872 100.078L341.391 4.38428L3.39893 197.711L506.782 485.838Z" fill="white"/>
<path d="M506.782 677.731V485.837L3.39893 197.711V390.039L174.407 487.772L506.782 677.731Z" fill="white"/>
<path d="M676.396 579.903L506.782 677.732L174.406 487.773V680.533L675.557 965.784L676.396 579.903Z" fill="#0E5CF2"/>
<path d="M842.231 677.731L1009.33 584.084L842.231 485.001V677.731Z" fill="white"/>
<path d="M674.352 195.773L842.231 100.548L674.352 3.38281L507.871 100.079L674.352 195.773Z" fill="white"/>
<path d="M842.231 292.271V100.548L674.352 195.774L842.231 292.271Z" fill="#0E5CF2"/>
<path d="M675.557 965.784L1009.33 774.724V584.084M675.557 965.784L676.397 579.903L506.782 677.731M675.557 965.784L174.407 680.532V487.773M1009.33 584.084L842.232 677.731V485.001M1009.33 584.084L842.232 485.001M506.782 677.731V485.838M506.782 677.731L3.39893 390.04M506.782 677.731L174.407 487.773M174.407 487.773L3.39893 390.04M842.232 485.001V292.27M842.232 292.27L506.782 485.838M842.232 292.27V100.548M842.232 292.27L674.353 195.773M506.782 485.838L3.39893 197.712M842.232 100.548L674.353 195.773M842.232 100.548L674.353 3.38281L507.872 100.079M674.353 195.773L507.872 100.079M3.39893 197.712L341.391 4.3845L507.872 100.079M3.39893 197.712V390.04" stroke="#181818" stroke-linecap="round" stroke-linejoin="round"/>
</svg>
